HIERARCHY
ROOT Hips
{
	OFFSET 0.00000 0.00000 0.00000
	CHANNELS 6 Xposition Yposition Zposition Yrotation Zrotation Xrotation 
	JOINT Lumbar
	{
		OFFSET 0 0 0
		CHANNELS 3 Zrotation Xrotation Yrotation
		JOINT Neck
		{
			OFFSET 0.00 0.2701 0.00
			CHANNELS 3 Zrotation Xrotation Yrotation
			End Site
			{
				OFFSET 0.00 0.1379 0.00
			}
		}
		JOINT RightShoulder
		{
			OFFSET 0.0119 0.2289 0.1181
			CHANNELS 3 Zrotation Xrotation Yrotation
			JOINT RightElbow
			{
				OFFSET 0.00 -0.1475 0.00
				CHANNELS 2 Zrotation Yrotation
				JOINT RightWrist
				{
					OFFSET 0.00 -0.1605 0.00
					CHANNELS 2 Zrotation Xrotation
					End Site
					{
						OFFSET 0.0040 -0.1068 0.0006
					}
				}
			}
		}
		JOINT LeftShoulder
		{
			OFFSET 0.0119 0.2289 -0.1181
			CHANNELS 3 Zrotation Xrotation Yrotation
			JOINT LeftElbow
			{
				OFFSET 0.00 -0.1475 0.00
				CHANNELS 2 Zrotation Yrotation
				JOINT LeftWrist
				{
					OFFSET 0.00 -0.1605 0.00
					CHANNELS 2 Zrotation Xrotation
					End Site
					{
						OFFSET 0.0040 -0.1068 -0.0006
					}
				}
			}
		}
	}
	JOINT RightHip
	{
		OFFSET 0.0316 -0.0424 0.0458
		CHANNELS 3 Zrotation Xrotation Yrotation
		JOINT RightKnee
		{
			OFFSET 0.00 -0.2438 0.00
			CHANNELS 1 Zrotation
			JOINT RightAnkle
			{
				OFFSET 0.00 -0.2449 0.00
				CHANNELS 3 Zrotation Xrotation Yrotation
				End Site
				{
					OFFSET 0.1237 -0.0542 0.0051
				}
			}
		}
	}
	JOINT LeftHip
	{
		OFFSET 0.0316 -0.0424 -0.0458
		CHANNELS 3 Zrotation Xrotation Yrotation
		JOINT LeftKnee
		{
			OFFSET 0.00 -0.2438 0.00
			CHANNELS 1 Zrotation
			JOINT LeftAnkle
			{
				OFFSET 0.00 -0.2449 0.00
				CHANNELS 3 Zrotation Xrotation Yrotation
				End Site
				{
					OFFSET 0.1237 -0.0542 -0.0051
				}
			}
		}
	}
}
MOTION
Frames: 14
Frame Time: 0.02
0 0.57926 0 197.4579 0 -13.60038 5.75376 12.51014 -6.5475 -22.82062 2.84286 0.11524 -10.61056 -29.09567 -4.13139 110.17213 44.23313 -23.83962 3.99783 -6.79894 16.27592 18.71798 105.18029 -71.80694 -33.76562 1.80116 -3.86375 13.69369 37.12758 2.00535 -3.8542 -4.22653 -11.90153 19.97858 18.62758 -28.81216 -36.35666 10.33794 8.09666 14.74064
0.00014 0.57915 -0.00022 197.43686 0 -13.64397 5.91252 12.45756 -6.33733 -22.8858 2.5344 -0.00924 -9.61772 -25.36479 -5.60532 110.94741 50.33348 -27.41429 2.73022 -5.6854 14.69238 17.8173 107.75775 -71.75885 -37.47148 1.88039 -3.84074 13.69369 37.12758 2.00535 -3.81573 -4.26103 -11.68063 20.07517 18.66251 -28.75976 -36.49485 10.37067 8.11296 14.76999
0.00028 0.57904 -0.00044 197.41557 0 -13.68713 6.07071 12.405 -6.12923 -22.9485 2.2278 -0.13368 -8.63215 -21.65847 -7.06604 111.71464 56.38651 -30.97438 1.47229 -4.58274 13.12295 16.91613 110.31239 -71.71236 -41.14545 1.95906 -3.81794 13.69369 37.12758 2.00535 -3.77748 -4.29516 -11.4613 20.17078 18.69726 -28.70756 -36.63185 10.40318 8.12909 14.79926
0.00041 0.57893 -0.00066 197.39348 0 -13.72868 6.22814 12.35183 -5.9265 -23.00427 1.92423 -0.25926 -7.66267 -18.00767 -8.48891 112.45777 62.32369 -34.5182 0.23985 -3.50997 11.59848 15.99944 112.8031 -71.69299 -44.71983 2.03816 -3.79578 13.69369 37.12758 2.00535 -3.73997 -4.32817 -11.24729 20.26329 18.73131 -28.65585 -36.76513 10.43481 8.14445 14.82837
0.00057 0.57881 -0.00088 197.37614 0 -13.77839 6.38955 12.30167 -5.69434 -23.09956 1.60294 -0.3789 -6.604 -14.05516 -10.11296 113.32918 68.89115 -38.15679 -1.12864 -2.27557 9.84063 15.15918 115.63503 -71.55531 -48.81194 2.11726 -3.77022 13.69369 37.12758 2.00535 -3.69883 -4.36712 -11.00647 20.3721 18.76868 -28.60175 -36.91772 10.47075 8.16363 14.85817
0.00067 0.57872 -0.00109 197.34843 0 -13.81105 6.54241 12.24534 -5.52532 -23.10927 1.32059 -0.51089 -5.73773 -10.74992 -11.30941 113.92797 74.10776 -41.58549 -2.20731 -1.38649 8.5749 14.16204 117.74071 -71.65077 -51.81162 2.19474 -3.75188 13.69369 37.12758 2.00535 -3.66519 -4.39346 -10.82166 20.44639 18.79924 -28.55262 -37.02959 10.49777 8.17489 14.88657
0.0006 0.57871 -0.00122 197.29309 0 -13.79372 6.67488 12.1684 -5.52659 -22.8907 1.13201 -0.68283 -5.3752 -9.16141 -11.3199 113.76725 75.69868 -44.55971 -2.4923 -1.44254 8.71053 12.65481 117.84113 -72.56618 -51.70887 2.28306 -3.75387 13.69369 37.12759 2.00535 -3.65413 -4.3845 -10.80026 20.42326 18.80887 -28.51751 -37.02558 10.49793 8.162 14.91105
0.00047 0.57873 -0.00133 197.22709 0 -13.75966 6.79826 12.08573 -5.59229 -22.58437 0.98501 -0.86632 -5.21137 -8.23711 -10.90037 113.33293 75.91023 -47.30328 -2.48391 -1.84859 9.33541 11.00189 117.2092 -73.68858 -50.51795 2.36728 -3.76309 13.69369 37.12761 2.00535 -3.65037 -4.36288 -10.83398 20.36564 18.81195 -28.48732 -36.98101 10.48942 8.14144 14.93414
0.00038 0.57874 -0.00144 197.16517 0 -13.73521 6.9239 12.00796 -5.63123 -22.31226 0.82772 -1.04098 -4.97439 -7.05361 -10.68001 113.0272 76.68412 -50.07346 -2.60554 -2.10052 9.70905 9.46339 116.91117 -74.59902 -49.88153 2.44317 -3.76876 13.69369 37.12762 2.00535 -3.64198 -4.34735 -10.8365 20.32514 18.81945 -28.45467 -36.95727 10.48642 8.1259 14.95797
0.00027 0.57876 -0.00157 197.10627 0 -13.70249 7.05748 11.92078 -5.65975 -22.06267 0.63427 -1.23089 -4.66592 -5.69235 -10.44095 112.70122 77.7222 -53.16937 -2.74052 -2.33271 10.20442 7.72061 116.6053 -75.9946 -48.9957 2.56095 -3.77557 13.69369 37.12763 2.00535 -3.63886 -4.33042 -10.86413 20.27856 18.82106 -28.42303 -36.92368 10.47709 8.10409 14.98144
0.00017 0.57875 -0.00166 197.03884 0 -13.68278 7.17225 11.85153 -5.72501 -21.74709 0.52587 -1.39157 -4.55252 -4.85666 -10.14226 112.35531 77.89211 -55.53699 -2.77867 -2.68781 10.5628 6.36998 116.1458 -76.44437 -48.36608 2.5919 -3.78168 13.69369 37.12765 2.00535 -3.62685 -4.31336 -10.85362 20.2364 18.83312 -28.39037 -36.90066 10.47853 8.09324 15.0052
0.00013 0.57869 -0.00166 196.94801 0 -13.70521 7.23839 11.83564 -5.87795 -21.25606 0.64288 -1.47079 -4.93728 -5.32841 -9.75425 111.99673 75.91919 -55.90858 -2.61594 -3.3068 10.4208 6.12681 115.40842 -74.09641 -48.75146 2.37181 -3.78445 13.69369 37.12765 2.00535 -3.58534 -4.29908 -10.71531 20.21522 18.87793 -28.35435 -36.91946 10.51482 8.11697 15.03118
0.0001 0.5786 -0.00163 196.84951 0 -13.7409 7.28571 11.83758 -6.065 -20.70468 0.8436 -1.51986 -5.50969 -6.30187 -9.327 111.63212 73.13502 -55.56248 -2.3668 -4.0347 10.12516 6.28565 114.54833 -70.81281 -49.42417 2.06652 -3.78618 13.69369 37.12765 2.00535 -3.5352 -4.2849 -10.53846 20.1996 18.93305 -28.3171 -36.94974 10.56166 8.15154 15.05727
7e-05 0.57853 -0.00161 196.75605 0 -13.76911 7.34093 11.82972 -6.23551 -20.19018 1.00592 -1.58132 -5.99116 -7.03431 -8.93688 111.28643 70.77769 -55.57295 -2.1608 -4.7071 9.90055 6.26725 113.76543 -68.04891 -49.93873 1.80858 -3.78817 13.69369 37.12765 2.00535 -3.49115 -4.27093 -10.38508 20.18122 18.98197 -28.27984 -36.9731 10.60173 8.17954 15.08264
